<?xml version="1.0" encoding="UTF-8"?>
<svg version="1.1" xmlns="http://www.w3.org/2000/svg" width="577" height="433">
<path d="M0 0 C0.66 0 1.32 0 2 0 C-0.11025331 7.0381744 -3.33760948 13.64811632 -6.3671875 20.32617188 C-8.97324736 26.19751679 -10.84663046 31.67612722 -12 38 C-12.99 37.855625 -13.98 37.71125 -15 37.5625 C-19.60285543 37.53449074 -21.90880744 40.03120546 -25.10546875 43.078125 C-25.73066406 43.71234375 -26.35585938 44.3465625 -27 45 C-27.69480469 45.52158691 -28.38960938 46.04317383 -29.10546875 46.58056641 C-31.85194777 50.08799 -31.41504332 53.38464265 -31.20703125 57.6328125 C-31.16880501 58.88238235 -31.16880501 58.88238235 -31.12980652 60.15719604 C-31.04321154 62.81419704 -30.92762911 65.46909891 -30.8125 68.125 C-30.75277899 69.92051465 -30.69481601 71.7160887 -30.63867188 73.51171875 C-30.57968984 75.21880479 -30.51919495 76.92583936 -30.45703125 78.6328125 C-30.42777054 79.44114532 -30.39850983 80.24947815 -30.36836243 81.08230591 C-30.27337575 85.17390601 -30.27337575 85.17390601 -29 89 C-24.51003672 90.28284665 -21.81065052 90.18664805 -17.75 88.0625 C-17.10546875 87.68222656 -16.4609375 87.30195313 -15.796875 86.91015625 C-14 86 -14 86 -11 86 C-10.98582031 85.10539062 -10.97164063 84.21078125 -10.95703125 83.2890625 C-10.60977178 74.48556564 -9.60870119 66.98987197 -3.44140625 60.3125 C1.41101066 56.05302181 5.77372504 55.66729828 12 56 C13.010625 56.20625 14.02125 56.4125 15.0625 56.625 C18.81503074 57.10404648 21.43742402 56.18752533 25 55 C26.33080659 54.65671774 27.66363447 54.32096115 29 54 C28.93940934 55.41782145 28.85045877 56.83444466 28.75 58.25 C28.70359375 59.03890625 28.6571875 59.8278125 28.609375 60.640625 C27.55833738 64.71002705 24.91603137 66.45783083 21.40625 68.53515625 C20.4471875 69.03917969 19.488125 69.54320312 18.5 70.0625 C12.44827956 73.50265893 7.58587228 77.54288358 2.65234375 82.39453125 C-0 85 -0 85 -2.12109375 86.69921875 C-4.11794832 88.45626631 -5.04976812 89.49524132 -6 92 C-6.17551544 97.42502258 -5.70959391 102.62643886 -5 108 C-5.99 108 -6.98 108 -8 108 C-8.99 104.7 -9.98 101.4 -11 98 C-12.423125 98.495 -13.84625 98.99 -15.3125 99.5 C-20.90221034 101.16180578 -26.19855453 101.84524371 -32 101 C-34.625 99.4375 -34.625 99.4375 -36 97 C-36.75 93.25 -36.75 93.25 -37 90 C-37.763125 90.763125 -38.52625 91.52625 -39.3125 92.3125 C-40.199375 93.199375 -41.08625 94.08625 -42 95 C-42.474375 95.5775 -42.94875 96.155 -43.4375 96.75 C-45.86857277 98.69485821 -47.92802352 98.8192955 -51 99 C-54.375 98.0625 -54.375 98.0625 -57 97 C-57.556875 97.680625 -58.11375 98.36125 -58.6875 99.0625 C-61 101 -61 101 -63.5 101 C-66.4137392 99.83450432 -67.87589021 98.27060012 -70 96 C-70.66 96 -71.32 96 -72 96 C-72.495 97.485 -72.495 97.485 -73 99 C-80.47686663 100.74806373 -80.47686663 100.74806373 -84.203125 98.91796875 C-85.54796289 97.98633487 -86.88799525 97.04771822 -88.22265625 96.1015625 C-90.03300662 94.77997229 -90.03300662 94.77997229 -92.6875 94.875 C-95.78667532 96.38270691 -97.70362443 98.45536761 -100 101 C-100.99 101.99 -100.99 101.99 -102 103 C-104.125 102.625 -104.125 102.625 -106 102 C-104.14378901 92.56426082 -99.89150881 87.72686385 -92.375 82 C-89.45476623 80.77042788 -87.13658967 80.78116816 -84 81 C-83.67 81.99 -83.34 82.98 -83 84 C-82.34 84 -81.68 84 -81 84 C-80.566875 84.515625 -80.13375 85.03125 -79.6875 85.5625 C-79.130625 86.036875 -78.57375 86.51125 -78 87 C-73.77640463 86.65638546 -71.41588487 85.08766668 -68.1875 82.4375 C-67.39730469 81.79683594 -66.60710937 81.15617187 -65.79296875 80.49609375 C-65.20128906 80.00238281 -64.60960937 79.50867188 -64 79 C-60.58749733 80.61949279 -57.95003374 82.63997301 -55 85 C-52.42816071 86.74221371 -51.26947216 87.00585809 -48.125 86.9375 C-44.08444573 85.72533372 -41.94175043 84.00860839 -39 81 C-35.10886401 71.76346507 -36.74474994 60.72818796 -38 51 C-39.98 51.33 -41.96 51.66 -44 52 C-43.67 51.01 -43.34 50.02 -43 49 C-39.71694623 47.41927041 -36.45463072 46.15154357 -33 45 C-33 44.34 -33 43.68 -33 43 C-31.6179057 42.1016387 -30.23417534 41.20572486 -28.84375 40.3203125 C-20.12392993 34.07603457 -13.92293648 25.28830833 -9.36328125 15.73828125 C-3.04261364 3.04261364 -3.04261364 3.04261364 0 0 Z M-5 71 C-6.48825598 73.70591997 -7.18945558 75.11373323 -6.5390625 78.15625 C-6.27222656 79.06890625 -6.27222656 79.06890625 -6 80 C-4.16052663 78.21427748 -2.32842259 76.42197551 -0.5 74.625 C0.02464844 74.11710937 0.54929687 73.60921875 1.08984375 73.0859375 C2.43153181 71.76167396 3.71995815 70.38394135 5 69 C5 68.34 5 67.68 5 67 C0.31838777 66.4649586 -1.70580151 67.70580151 -5 71 Z " fill="#E8E8E8" transform="translate(339,154)"/>
<path d="M0 0 C2.46800047 1.15173355 4.04783565 2.04783565 6 4 C6 4.99 6 5.98 6 7 C6.94875 7.28875 7.8975 7.5775 8.875 7.875 C12 9 12 9 14 11 C12.68 12.65 11.36 14.3 10 16 C8.68 15.67 7.36 15.34 6 15 C5.814375 16.175625 5.814375 16.175625 5.625 17.375 C5 20 5 20 3 22 C-1.37900291 21.76952616 -3.09017432 20.11050331 -6 17 C-6.66 17 -7.32 17 -8 17 C-8.495 18.485 -8.495 18.485 -9 20 C-16.47686663 21.74806373 -16.47686663 21.74806373 -20.203125 19.91796875 C-21.54796289 18.98633487 -22.88799525 18.04771822 -24.22265625 17.1015625 C-26.03300662 15.77997229 -26.03300662 15.77997229 -28.6875 15.875 C-31.78667532 17.38270691 -33.70362443 19.45536761 -36 22 C-36.66 22.66 -37.32 23.32 -38 24 C-40.125 23.625 -40.125 23.625 -42 23 C-40.14378901 13.56426082 -35.89150881 8.72686385 -28.375 3 C-25.45476623 1.77042788 -23.13658967 1.78116816 -20 2 C-19.67 2.99 -19.34 3.98 -19 5 C-18.34 5 -17.68 5 -17 5 C-16.566875 5.515625 -16.13375 6.03125 -15.6875 6.5625 C-15.130625 7.036875 -14.57375 7.51125 -14 8 C-9.77640463 7.65638546 -7.41588487 6.08766668 -4.1875 3.4375 C-3.39730469 2.79683594 -2.60710937 2.15617188 -1.79296875 1.49609375 C-1.20128906 1.00238281 -0.60960937 0.50867188 0 0 Z " fill="#DBDBDB" transform="translate(275,233)"/>
<path d="M0 0 C0.99 0 1.98 0 3 0 C2.93940934 1.41782145 2.85045877 2.83444466 2.75 4.25 C2.70359375 5.03890625 2.6571875 5.8278125 2.609375 6.640625 C1.51651089 10.87197067 -1.3840743 12.60544812 -4.9453125 14.88671875 C-5.99460937 15.48097656 -7.04390625 16.07523438 -8.125 16.6875 C-9.17945313 17.28949219 -10.23390625 17.89148438 -11.3203125 18.51171875 C-12.86479121 19.36951232 -14.41981664 20.20990832 -16 21 C-16.66 20.67 -17.32 20.34 -18 20 C-18 18.68 -18 17.36 -18 16 C-18.45375 16.45375 -18.9075 16.9075 -19.375 17.375 C-20.58333333 18.58333333 -21.79166667 19.79166667 -23 21 C-24.32 20.67 -25.64 20.34 -27 20 C-24.03 16.535 -24.03 16.535 -21 13 C-25.80312565 14.03812448 -25.80312565 14.03812448 -29.875 16.625 C-31.50221426 20.0602301 -31.68470662 23.21647941 -32 27 C-32.99 27 -33.98 27 -35 27 C-35.33 28.65 -35.66 30.3 -36 32 C-36.33 32 -36.66 32 -37 32 C-36.84717362 22.35804481 -36.25211423 13.68649961 -29.44140625 6.3125 C-24.58898934 2.05302181 -20.22627496 1.66729828 -14 2 C-12.4840625 2.309375 -12.4840625 2.309375 -10.9375 2.625 C-7.19279215 3.10304781 -4.52980266 2.24581271 -1 1 C-0.67 0.67 -0.34 0.34 0 0 Z " fill="#E0E0E0" transform="translate(365,208)"/>
<path d="M0 0 C0.66 0 1.32 0 2 0 C-0.11025331 7.0381744 -3.33760948 13.64811632 -6.3671875 20.32617188 C-8.97324736 26.19751679 -10.84663046 31.67612722 -12 38 C-12.99 37.855625 -13.98 37.71125 -15 37.5625 C-19.60285543 37.53449074 -21.90880744 40.03120546 -25.10546875 43.078125 C-25.73066406 43.71234375 -26.35585938 44.3465625 -27 45 C-27.69101807 45.53367188 -28.38203613 46.06734375 -29.09399414 46.6171875 C-31.76029196 49.95048669 -31.50370135 52.96674932 -31.390625 57.046875 C-31.38496521 57.81807678 -31.37930542 58.58927856 -31.37347412 59.3838501 C-31.35113589 61.83987279 -31.30094763 64.29442055 -31.25 66.75 C-31.22993154 68.41794763 -31.21168137 70.08591821 -31.1953125 71.75390625 C-31.15127992 75.83650323 -31.08227283 79.91800181 -31 84 C-31.33 84 -31.66 84 -32 84 C-32.02505615 83.33991943 -32.0501123 82.67983887 -32.07592773 81.99975586 C-32.19271752 78.97884631 -32.31506446 75.95818578 -32.4375 72.9375 C-32.47681641 71.89916016 -32.51613281 70.86082031 -32.55664062 69.79101562 C-32.77666344 64.45969359 -33.1116184 59.26310107 -34 54 C-34.66 56.31 -35.32 58.62 -36 61 C-36.33 61 -36.66 61 -37 61 C-37.33 57.7 -37.66 54.4 -38 51 C-40.97 51.495 -40.97 51.495 -44 52 C-43.67 51.01 -43.34 50.02 -43 49 C-39.71694623 47.41927041 -36.45463072 46.15154357 -33 45 C-33 44.34 -33 43.68 -33 43 C-31.6179057 42.1016387 -30.23417534 41.20572486 -28.84375 40.3203125 C-20.12392993 34.07603457 -13.92293648 25.28830833 -9.36328125 15.73828125 C-3.04261364 3.04261364 -3.04261364 3.04261364 0 0 Z " fill="#686868" transform="translate(339,154)"/>
<path d="M0 0 C0.66 0 1.32 0 2 0 C2 1.32 2 2.64 2 4 C2.66 4 3.32 4 4 4 C4 4.66 4 5.32 4 6 C2.53125 7.41015625 2.53125 7.41015625 0.5 9.0625 C-9.06214226 16.87246648 -9.06214226 16.87246648 -13 28.0625 C-13.03611385 29.70793707 -13.04919919 31.35490219 -13 33 C-13.33 33 -13.66 33 -14 33 C-14.66 30.03 -15.32 27.06 -16 24 C-16.66 24.33 -17.32 24.66 -18 25 C-18 24.34 -18 23.68 -18 23 C-18.66 23 -19.32 23 -20 23 C-19.4833384 19.17670414 -18.74085338 17.62665115 -16 15 C-15.28552357 12.89667109 -15.28552357 12.89667109 -15 11 C-14.01 11 -13.02 11 -12 11 C-11.690625 10.13375 -11.690625 10.13375 -11.375 9.25 C-9.48374778 6.15522364 -7.09964063 4.8081237 -4 3 C-3.34 3 -2.68 3 -2 3 C-1.34 2.01 -0.68 1.02 0 0 Z " fill="#DEDEDE" transform="translate(345,224)"/>
<path d="M0 0 C1.28423981 4.65536931 1 9.18875045 1 14 C0.443125 14.20625 -0.11375 14.4125 -0.6875 14.625 C-3.28039851 15.97577718 -3.28039851 15.97577718 -5.375 19.0625 C-8 22 -8 22 -10.875 23 C-14.55576507 23 -17.52786869 22.18052465 -21 21 C-21 20.01 -21 19.02 -21 18 C-20.21625 17.896875 -19.4325 17.79375 -18.625 17.6875 C-15.66954819 17.22404978 -15.66954819 17.22404978 -14 14 C-17.465 12.02 -17.465 12.02 -21 10 C-20.67 9.34 -20.34 8.68 -20 8 C-18.700625 8.7734375 -18.700625 8.7734375 -17.375 9.5625 C-13.46166664 11.22929013 -12.00191598 11.33397199 -8 10 C-3.86804673 7.13941697 -1.39549335 4.88422674 0 0 Z " fill="#C6C6C6" transform="translate(302,230)"/>
<path d="M0 0 C-0.23316485 4.04152406 -0.4228959 6.33802764 -3.125 9.4375 C-6.68732285 11.37354503 -8.99714622 11.37063461 -13 11 C-16.42269984 9.85910005 -17.7522146 8.79035429 -20 6 C-20.11328125 3.359375 -20.11328125 3.359375 -20 1 C-18.53626953 1.01740234 -18.53626953 1.01740234 -17.04296875 1.03515625 C-15.77066406 1.04417969 -14.49835938 1.05320313 -13.1875 1.0625 C-11.29064453 1.07990234 -11.29064453 1.07990234 -9.35546875 1.09765625 C-6.00550226 1.00016014 -3.33424267 0 0 0 Z " fill="#F2F2F2" transform="translate(324,244)"/>
<path d="M0 0 C-0.56546674 3.95826719 -1.63546332 6.759709 -4 10 C-6.90184625 11.77369868 -9.38349961 12.32795585 -12.75 12.625 C-13.54921875 12.69976562 -14.3484375 12.77453125 -15.171875 12.8515625 C-15.77515625 12.90054688 -16.3784375 12.94953125 -17 13 C-17 8.43778316 -15.17578413 5.24588974 -12 2 C-8.09639866 0.48635867 -4.17221249 0 0 0 Z " fill="#BEBEBE" transform="translate(259,213)"/>
<path d="M0 0 C0.66 0.66 1.32 1.32 2 2 C2.99 1.34 3.98 0.68 5 0 C8.66666667 0 12.33333333 0 16 0 C14.66786942 3.5865054 13.23083941 6.87682483 11 10 C8 10 8 10 6 9 C7.98 6.69 9.96 4.38 12 2 C7.19687435 3.03812448 7.19687435 3.03812448 3.125 5.625 C1.49778574 9.0602301 1.31529338 12.21647941 1 16 C0.01 16 -0.98 16 -2 16 C-2.33 17.65 -2.66 19.3 -3 21 C-3.33 21 -3.66 21 -4 21 C-3.40546697 6.21867882 -3.40546697 6.21867882 0 0 Z " fill="#A0A0A0" transform="translate(332,219)"/>
<path d="M0 0 C0.99 0.33 1.98 0.66 3 1 C2.01 2.98 1.02 4.96 0 7 C1.32 7 2.64 7 4 7 C4.33 7 4.66 7 5 7 C5.33 8.65 5.66 10.3 6 12 C6.66 11.34 7.32 10.68 8 10 C8.33 13.96 8.66 17.92 9 22 C8.01 22 7.02 22 6 22 C4.515 17.05 4.515 17.05 3 12 C0.69 12.33 -1.62 12.66 -4 13 C-3.01 10.03 -2.02 7.06 -1 4 C-2.2684375 4.495 -2.2684375 4.495 -3.5625 5 C-7.20989216 6.06105954 -10.22274664 6.15109013 -14 6 C-14 5.34 -14 4.68 -14 4 C-13.40832031 3.96261719 -12.81664062 3.92523438 -12.20703125 3.88671875 C-7.27211276 3.47614641 -4.21810173 2.72935995 0 0 Z " fill="#939393" transform="translate(325,240)"/>
<path d="M0 0 C0.66 0 1.32 0 2 0 C0.45173401 4.95757898 -1.51780938 9.63810401 -3.625 14.375 C-3.94984375 15.11105469 -4.2746875 15.84710938 -4.609375 16.60546875 C-5.40384503 18.40470969 -6.20158771 20.20250496 -7 22 C-7.66 21.01 -8.32 20.02 -9 19 C-9.99 19.99 -10.98 20.98 -12 22 C-10.42643936 16.02046958 -7.26552972 11.17460863 -4 6 C-3.60039062 5.34773437 -3.20078125 4.69546875 -2.7890625 4.0234375 C-1.91888793 2.64293498 -0.96802213 1.31374432 0 0 Z " fill="#707070" transform="translate(339,154)"/>
<path d="M0 0 C0.33 0 0.66 0 1 0 C0.63495936 5.66442374 -0.0554321 10.00703705 -3 15 C-5.97 14.505 -5.97 14.505 -9 14 C-8.41249836 10.07108277 -6.48121841 7.78063106 -4 4.75 C-3.278125 3.85796875 -2.55625 2.9659375 -1.8125 2.046875 C-1.214375 1.37140625 -0.61625 0.6959375 0 0 Z " fill="#D7D7D7" transform="translate(330,172)"/>
<path d="M0 0 C0.98120464 3.05263664 0.98120464 4.94736336 0 8 C-1.051875 7.938125 -2.10375 7.87625 -3.1875 7.8125 C-7.20667184 8.01016419 -8.72569962 8.8483169 -12 11 C-12.66 10.67 -13.32 10.34 -14 10 C-13.566875 9.608125 -13.13375 9.21625 -12.6875 8.8125 C-10.86417371 6.98203003 -10.86417371 6.98203003 -9.4375 4.375 C-8 2 -8 2 -6 1 C-3.98072489 1.60578253 -1.97746603 2.26919734 0 3 C0 2.01 0 1.02 0 0 Z " fill="#B5B5B5" transform="translate(327,184)"/>
<path d="M0 0 C2 1 2 1 3 2 C3.66 1.34 4.32 0.68 5 0 C5 0.66 5 1.32 5 2 C5.598125 1.649375 6.19625 1.29875 6.8125 0.9375 C9 0 9 0 12 1 C9.70870707 2.31315613 7.4169845 3.62555193 5.125 4.9375 C4.47402344 5.31068359 3.82304687 5.68386719 3.15234375 6.06835938 C-1.7734375 8.88671875 -1.7734375 8.88671875 -4 10 C-4.33 9.01 -4.66 8.02 -5 7 C-4.00390625 5.17578125 -4.00390625 5.17578125 -2.5625 3.3125 C-2.08941406 2.68988281 -1.61632812 2.06726563 -1.12890625 1.42578125 C-0.75636719 0.95527344 -0.38382812 0.48476562 0 0 Z " fill="#B5B5B5" transform="translate(353,219)"/>
<path d="M0 0 C1.32 0.66 2.64 1.32 4 2 C4 6.29 4 10.58 4 15 C3.67 15 3.34 15 3 15 C2.34 12.03 1.68 9.06 1 6 C0.01 6.495 0.01 6.495 -1 7 C-1 6.34 -1 5.68 -1 5 C-1.66 5 -2.32 5 -3 5 C-2.625 3.0625 -2.625 3.0625 -2 1 C-1.34 0.67 -0.68 0.34 0 0 Z " fill="#EEEEEE" transform="translate(328,242)"/>
<path d="M0 0 C0.33 1.65 0.66 3.3 1 5 C1.66 4.34 2.32 3.68 3 3 C3.33 6.96 3.66 10.92 4 15 C3.01 15 2.02 15 1 15 C0.80664062 14.30132812 0.61328125 13.60265625 0.4140625 12.8828125 C0.15367187 11.97273438 -0.10671875 11.06265625 -0.375 10.125 C-0.63023437 9.22007812 -0.88546875 8.31515625 -1.1484375 7.3828125 C-1.8604315 4.85430274 -1.8604315 4.85430274 -4 3 C-1.125 0 -1.125 0 0 0 Z " fill="#424242" transform="translate(330,247)"/>
<path d="M0 0 C0.94875 0.350625 1.8975 0.70125 2.875 1.0625 C0.25 5.9375 0.25 5.9375 -3.125 7.0625 C-3.455 6.0725 -3.785 5.0825 -4.125 4.0625 C-4.785 3.7325 -5.445 3.4025 -6.125 3.0625 C-5.795 2.0725 -5.465 1.0825 -5.125 0.0625 C-3.125 -0.9375 -3.125 -0.9375 0 0 Z " fill="#F9F9F9" transform="translate(286.125,241.9375)"/>
<path d="M0 0 C1.32 0 2.64 0 4 0 C3.67 2.31 3.34 4.62 3 7 C2.01 7.33 1.02 7.66 0 8 C-0.66 7.67 -1.32 7.34 -2 7 C-2.625 4.9375 -2.625 4.9375 -3 3 C-2.01 2.34 -1.02 1.68 0 1 C0 0.67 0 0.34 0 0 Z " fill="#D6D6D6" transform="translate(253,215)"/>
<path d="M0 0 C1.28423981 4.65536931 1 9.18875045 1 14 C0.01 14 -0.98 14 -2 14 C-1.67 12.02 -1.34 10.04 -1 8 C-2.65 8.66 -4.3 9.32 -6 10 C-5.65066406 9.52949219 -5.30132812 9.05898437 -4.94140625 8.57421875 C-4.48636719 7.95160156 -4.03132813 7.32898438 -3.5625 6.6875 C-2.88380859 5.76517578 -2.88380859 5.76517578 -2.19140625 4.82421875 C-0.82663692 2.90322899 -0.82663692 2.90322899 0 0 Z " fill="#7A7A7A" transform="translate(302,230)"/>
<path d="M0 0 C0.66 0 1.32 0 2 0 C2.36923077 5.41538462 2.36923077 5.41538462 0.5 8.375 C0.005 8.91125 -0.49 9.4475 -1 10 C-1.33 9.01 -1.66 8.02 -2 7 C-2.99 7.99 -3.98 8.98 -5 10 C-3.85569823 6.12697862 -2.76679902 2.99736561 0 0 Z " fill="#696969" transform="translate(332,166)"/>
<path d="M0 0 C0.144375 0.598125 0.28875 1.19625 0.4375 1.8125 C0.8872439 3.56150404 1.42892341 5.28677023 2 7 C2.34820041 8.66362417 2.68404492 10.32995171 3 12 C2.01 12 1.02 12 0 12 C-0.33 13.65 -0.66 15.3 -1 17 C-1.33 17 -1.66 17 -2 17 C-1.85899143 14.72886197 -1.71203245 12.45809275 -1.5625 10.1875 C-1.48128906 8.92292969 -1.40007812 7.65835938 -1.31640625 6.35546875 C-1 3 -1 3 0 0 Z " fill="#5D5D5D" transform="translate(330,223)"/>
<path d="M0 0 C0.33 0 0.66 0 1 0 C0.88590407 1.45922693 0.75834456 2.91740598 0.625 4.375 C0.55539062 5.18710938 0.48578125 5.99921875 0.4140625 6.8359375 C0 9 0 9 -2 11 C-2 9.68 -2 8.36 -2 7 C-2.99 7.33 -3.98 7.66 -5 8 C-3.6299034 5.0490227 -2.06764583 2.51713405 0 0 Z " fill="#B9B9B9" transform="translate(330,172)"/>
<path d="M0 0 C0.98120464 3.05263664 0.98120464 4.94736336 0 8 C-2.31 7.67 -4.62 7.34 -7 7 C-5.68 5.35 -4.36 3.7 -3 2 C-2.01 2.33 -1.02 2.66 0 3 C0 2.01 0 1.02 0 0 Z " fill="#4B4B4B" transform="translate(327,184)"/>
<path d="M0 0 C0.66 0 1.32 0 2 0 C2 0.66 2 1.32 2 2 C2.66 1.67 3.32 1.34 4 1 C5.99960012 0.960008 8.00047242 0.95653201 10 1 C9.01 2.32 8.02 3.64 7 5 C4.625 4.75 4.625 4.75 2 4 C0.6875 1.9375 0.6875 1.9375 0 0 Z " fill="#9F9F9F" transform="translate(271,250)"/>
<path d="M0 0 C0.66 0 1.32 0 2 0 C2 0.66 2 1.32 2 2 C2.66 2 3.32 2 4 2 C4.99 4.31 5.98 6.62 7 9 C4 9 4 9 1.8125 7.3125 C-0.31050198 4.6038423 -0.37254569 3.35291118 0 0 Z " fill="#F9F9F9" transform="translate(304,245)"/>
<path d="M0 0 C-0.11409593 1.45922693 -0.24165544 2.91740598 -0.375 4.375 C-0.44460938 5.18710938 -0.51421875 5.99921875 -0.5859375 6.8359375 C-1 9 -1 9 -3 11 C-2.979375 10.05125 -2.95875 9.1025 -2.9375 8.125 C-2.77448174 5.09333717 -2.77448174 5.09333717 -4 3 C-4.66 2.67 -5.32 2.34 -6 2 C-3 0 -3 0 0 0 Z " fill="#757575" transform="translate(368,208)"/>
<path d="M0 0 C0.66 0.33 1.32 0.66 2 1 C2 4.3 2 7.6 2 11 C1.67 11 1.34 11 1 11 C0.67 8.69 0.34 6.38 0 4 C-0.99 7.465 -0.99 7.465 -2 11 C-2.33 11 -2.66 11 -3 11 C-3 8.36 -3 5.72 -3 3 C-2.34 3 -1.68 3 -1 3 C-0.67 2.01 -0.34 1.02 0 0 Z " fill="#999999" transform="translate(305,204)"/>
<path d="M0 0 C0.33 0 0.66 0 1 0 C1.33 1.98 1.66 3.96 2 6 C2.66 6 3.32 6 4 6 C4.103125 6.639375 4.20625 7.27875 4.3125 7.9375 C4.539375 8.618125 4.76625 9.29875 5 10 C5.99 10.33 6.98 10.66 8 11 C5.1875 10.9375 5.1875 10.9375 2 10 C0.0625 6.625 0.0625 6.625 -1 3 C-0.67 2.01 -0.34 1.02 0 0 Z " fill="#787878" transform="translate(303,244)"/>
<path d="M0 0 C0.66 1.32 1.32 2.64 2 4 C2.99 4.33 3.98 4.66 5 5 C2.69 6.32 0.38 7.64 -2 9 C-1.34 6.03 -0.68 3.06 0 0 Z " fill="#D5D5D5" transform="translate(237,247)"/>
<path d="M0 0 C0 3 0 3 -1 5 C-0.34 5.33 0.32 5.66 1 6 C-1.475 7.485 -1.475 7.485 -4 9 C-4 8.34 -4 7.68 -4 7 C-4.66 6.67 -5.32 6.34 -6 6 C-4.02 4.02 -2.04 2.04 0 0 Z " fill="#686868" transform="translate(316,189)"/>
<path d="M0 0 C1.54571278 2.31856917 2.79618552 4.50638429 4 7 C2.68 7 1.36 7 0 7 C-0.33 7.66 -0.66 8.32 -1 9 C-2.25541557 5.23375329 -1.37061958 3.62811066 0 0 Z " fill="#CECECE" transform="translate(307,238)"/>
<path d="M0 0 C0.66 0.33 1.32 0.66 2 1 C1.67 2.11375 1.34 3.2275 1 4.375 C-0.088643 7.69459717 -0.088643 7.69459717 0 10 C-0.66 10 -1.32 10 -2 10 C-3.06351675 6.61608307 -3.21442982 5.4195366 -1.5625 2.1875 C-1.046875 1.465625 -0.53125 0.74375 0 0 Z " fill="#F7F7F7" transform="translate(349,218)"/>
<path d="M0 0 C1.65 0 3.3 0 5 0 C4.67 0.99 4.34 1.98 4 3 C-0.455 3.495 -0.455 3.495 -5 4 C-5 3.67 -5 3.34 -5 3 C-3.35 3 -1.7 3 0 3 C0 2.01 0 1.02 0 0 Z " fill="#7E7E7E" transform="translate(262,250)"/>
<path d="M0 0 C-0.33 1.65 -0.66 3.3 -1 5 C-1.33 4.01 -1.66 3.02 -2 2 C-5.3 2.33 -8.6 2.66 -12 3 C-7.92834397 0.96417198 -4.54795711 0 0 0 Z " fill="#676767" transform="translate(259,213)"/>
<path d="M0 0 C0.66 0.33 1.32 0.66 2 1 C2 1.99 2 2.98 2 4 C1.01 4 0.02 4 -1 4 C-1.66 4.66 -2.32 5.32 -3 6 C-3.66 6 -4.32 6 -5 6 C-3.86695008 2.60085025 -2.87481525 1.94745549 0 0 Z " fill="#343434" transform="translate(306,201)"/>
<path d="M0 0 C0.66 0 1.32 0 2 0 C2 0.99 2 1.98 2 3 C1.01 2.67 0.02 2.34 -1 2 C-0.67 1.34 -0.34 0.68 0 0 Z M-3 2 C-2.34 2.33 -1.68 2.66 -1 3 C-1.99 4.32 -2.98 5.64 -4 7 C-4.99 6.67 -5.98 6.34 -7 6 C-7 5.34 -7 4.68 -7 4 C-5.68 4 -4.36 4 -3 4 C-3 3.34 -3 2.68 -3 2 Z " fill="#F0F0F0" transform="translate(299,238)"/>
<path d="M0 0 C0 0.99 0 1.98 0 3 C-1.98 3.99 -1.98 3.99 -4 5 C-4 4.34 -4 3.68 -4 3 C-4.66 3 -5.32 3 -6 3 C-6 2.34 -6 1.68 -6 1 C-4 0 -4 0 0 0 Z " fill="#9A9A9A" transform="translate(312,196)"/>
<path d="M0 0 C1.98 0 3.96 0 6 0 C6.33 0.99 6.66 1.98 7 3 C7.66 3 8.32 3 9 3 C8.67 3.66 8.34 4.32 8 5 C7.01 5 6.02 5 5 5 C4.67 3.68 4.34 2.36 4 1 C2.68 0.67 1.36 0.34 0 0 Z " fill="#838383" transform="translate(249,235)"/>
<path d="" fill="#000000" transform="translate(0,0)"/>
<path d="" fill="#000000" transform="translate(0,0)"/>
</svg>
